<svg width="56" height="56" viewBox="0 0 56 56" fill="none" xmlns="http://www.w3.org/2000/svg">
<g filter="url(#filter0_d_3180_6388)">
<path d="M8 16C8 11.5817 11.5817 8 16 8H40C44.4183 8 48 11.5817 48 16V40C48 44.4183 44.4183 48 40 48H16C11.5817 48 8 44.4183 8 40V16Z" fill="white"/>
<path d="M29.4099 28.0002L35.7099 21.7102C35.8982 21.5219 36.004 21.2665 36.004 21.0002C36.004 20.7339 35.8982 20.4785 35.7099 20.2902C35.5216 20.1019 35.2662 19.9961 34.9999 19.9961C34.7336 19.9961 34.4782 20.1019 34.2899 20.2902L27.9999 26.5902L21.7099 20.2902C21.5216 20.1019 21.2662 19.9961 20.9999 19.9961C20.7336 19.9961 20.4782 20.1019 20.2899 20.2902C20.1016 20.4785 19.9958 20.7339 19.9958 21.0002C19.9958 21.2665 20.1016 21.5219 20.2899 21.7102L26.5899 28.0002L20.2899 34.2902C20.1962 34.3831 20.1218 34.4937 20.071 34.6156C20.0203 34.7375 19.9941 34.8682 19.9941 35.0002C19.9941 35.1322 20.0203 35.2629 20.071 35.3848C20.1218 35.5066 20.1962 35.6172 20.2899 35.7102C20.3829 35.8039 20.4935 35.8783 20.6154 35.9291C20.7372 35.9798 20.8679 36.006 20.9999 36.006C21.132 36.006 21.2627 35.9798 21.3845 35.9291C21.5064 35.8783 21.617 35.8039 21.7099 35.7102L27.9999 29.4102L34.2899 35.7102C34.3829 35.8039 34.4935 35.8783 34.6154 35.9291C34.7372 35.9798 34.8679 36.006 34.9999 36.006C35.132 36.006 35.2627 35.9798 35.3845 35.9291C35.5064 35.8783 35.617 35.8039 35.7099 35.7102C35.8037 35.6172 35.8781 35.5066 35.9288 35.3848C35.9796 35.2629 36.0057 35.1322 36.0057 35.0002C36.0057 34.8682 35.9796 34.7375 35.9288 34.6156C35.8781 34.4937 35.8037 34.3831 35.7099 34.2902L29.4099 28.0002Z" fill="#000046"/>
</g>
<defs>
<filter id="filter0_d_3180_6388" x="0" y="0" width="56" height="56" filterUnits="userSpaceOnUse" color-interpolation-filters="sRGB">
<feFlood flood-opacity="0" result="BackgroundImageFix"/>
<feColorMatrix in="SourceAlpha" type="matrix" values="0 0 0 0 0 0 0 0 0 0 0 0 0 0 0 0 0 0 127 0" result="hardAlpha"/>
<feOffset/>
<feGaussianBlur stdDeviation="4"/>
<feComposite in2="hardAlpha" operator="out"/>
<feColorMatrix type="matrix" values="0 0 0 0 0.0509804 0 0 0 0 0.290196 0 0 0 0 0.568627 0 0 0 0.15 0"/>
<feBlend mode="normal" in2="BackgroundImageFix" result="effect1_dropShadow_3180_6388"/>
<feBlend mode="normal" in="SourceGraphic" in2="effect1_dropShadow_3180_6388" result="shape"/>
</filter>
</defs>
</svg>
